<?xml version="1.0" encoding="UTF-8"?>
<svg width="170px" height="170px" viewBox="0 0 170 170" version="1.1" xmlns="http://www.w3.org/2000/svg" xmlns:xlink="http://www.w3.org/1999/xlink">
    <!-- Generator: Sketch 53.2 (72643) - https://sketchapp.com -->
    <title>Group 4</title>
    <desc>Created with Sketch.</desc>
    <g id="Page-1" stroke="none" stroke-width="1" fill="none" fill-rule="evenodd">
        <g id="Group-4" transform="translate(3.000000, 3.000000)">
            <circle id="Oval-Copy" stroke="#FFFFFF" stroke-width="5" cx="82" cy="82" r="82"></circle>
            <g id="noun_run_560128" transform="translate(33.000000, 38.000000)" fill="#FFFFFF" fill-rule="nonzero">
                <path d="M89.5,33.3 L79.3,33.3 L69.7,18.7 C69.7,18.7 69.6,18.6 69.6,18.6 C69.5,18.5 69.5,18.4 69.4,18.3 C69.3,18.2 69.2,18 69,17.9 C68.9,17.8 68.8,17.8 68.7,17.7 C68.6,17.6 68.4,17.5 68.3,17.4 C68.2,17.3 68.1,17.3 68,17.2 C67.8,17.1 67.7,17.1 67.5,17 C67.4,17 67.4,16.9 67.3,16.9 L49,12.1 C47.9,11.8 46.6,12 45.7,12.7 L31.3,22.6 C29.5,23.9 29,26.4 30.3,28.2 C31.6,30 34.1,30.5 35.9,29.2 L48.7,20.4 L59,23.2 C58.1,24.5 34.5,57.2 34.5,57.2 L16.8,58.7 C14.6,58.9 12.9,60.9 13.1,63.1 C13.3,65.2 15,66.8 17.1,66.8 C17.2,66.8 17.3,66.8 17.5,66.8 L36.9,65.1 C38,65 39,64.5 39.7,63.7 L49.6,51.8 L63.6,61.4 L56,82.1 C55.2,84.2 56.3,86.5 58.4,87.3 C58.9,87.5 59.3,87.5 59.8,87.5 C61.5,87.5 63,86.5 63.6,84.8 L72.4,60.5 C73,58.9 72.5,57.1 71.2,56 L61.1,47.6 L69.5,33.1 L73.7,39.6 C74.4,40.7 75.7,41.4 77.1,41.4 L89.5,41.4 C91.7,41.4 93.5,39.6 93.5,37.4 C93.6,35.1 91.7,33.3 89.5,33.3 Z M76.8,16.1 C81.1,16.1 84.6,12.6 84.6,8.3 C84.6,4 81.1,0.5 76.8,0.5 C72.5,0.5 69,4 69,8.3 C69,12.6 72.4,16.1 76.8,16.1 Z M7.9,44.8 L32.2,44.8 C33.6,44.8 34.7,43.7 34.7,42.3 C34.7,40.9 33.6,39.8 32.2,39.8 L7.9,39.8 C6.5,39.8 5.4,40.9 5.4,42.3 C5.4,43.7 6.6,44.8 7.9,44.8 Z M29.7,50.1 C29.7,48.7 28.6,47.6 27.2,47.6 L2.9,47.6 C1.5,47.6 0.4,48.7 0.4,50.1 C0.4,51.5 1.5,52.6 2.9,52.6 L27.2,52.6 C28.6,52.6 29.7,51.5 29.7,50.1 Z M14.4,37.6 L38.7,37.6 C40.1,37.6 41.2,36.5 41.2,35.1 C41.2,33.7 40.1,32.6 38.7,32.6 L14.4,32.6 C13,32.6 11.9,33.7 11.9,35.1 C11.9,36.5 13,37.6 14.4,37.6 Z" id="Shape"></path>
            </g>
        </g>
    </g>
</svg>