<?xml version="1.0" encoding="UTF-8"?>
<svg width="170px" height="170px" viewBox="0 0 170 170" version="1.1" xmlns="http://www.w3.org/2000/svg" xmlns:xlink="http://www.w3.org/1999/xlink">
    <!-- Generator: Sketch 53.2 (72643) - https://sketchapp.com -->
    <title>Group 2</title>
    <desc>Created with Sketch.</desc>
    <g id="Page-1" stroke="none" stroke-width="1" fill="none" fill-rule="evenodd">
        <g id="Group-2" transform="translate(3.000000, 3.000000)">
            <circle id="Oval-Copy-2" stroke="#FFFFFF" stroke-width="5" cx="82" cy="82" r="82"></circle>
            <g id="noun_Loop_1458792" transform="translate(43.000000, 50.000000)" fill="#FFFFFF" fill-rule="nonzero">
                <path d="M55,12.9 L46.6,12.9 C44.390861,12.9 42.6,14.690861 42.6,16.9 C42.6,19.109139 44.390861,20.9 46.6,20.9 L55,20.9 C62.8587837,20.8998078 69.2450435,27.2414084 69.3,35.1 C69.3,42.9976719 62.8976719,49.4 55,49.4 L21,49.4 C13.5915134,48.7788411 7.89478031,42.5844813 7.89478031,35.15 C7.89478031,27.7155187 13.5915134,21.5211589 21,20.9 L24.9,20.9 L19.3,26.5 C17.7259885,28.0740115 17.7259885,30.6259884 19.3,32.2 C20.8740116,33.7740115 23.4259885,33.7740115 25,32.2 L37.4,19.8 C38.1634314,19.0481705 38.5933116,18.0214827 38.5933116,16.95 C38.5933116,15.8785173 38.1634314,14.8518295 37.4,14.1 L25,1.7 C23.4259885,0.125988503 20.8740116,0.125988522 19.3,1.70000004 C17.7259885,3.27401156 17.7259885,5.82598846 19.3,7.4 L24.9,13 L21,13 C9.28968765,13.785502 0.192481156,23.5133723 0.192481156,35.25 C0.192481156,46.9866277 9.28968765,56.714498 21,57.5 L55,57.5 C60.9491436,57.5002393 66.651757,55.1233473 70.8396153,50.8979298 C75.0274735,46.6725123 77.3533556,40.9489043 77.3,35 C77.1902398,22.7622262 67.238266,12.8995078 55,12.9 Z" id="Path"></path>
            </g>
        </g>
    </g>
</svg>