<?xml version="1.0" encoding="UTF-8"?>
<svg width="170px" height="170px" viewBox="0 0 170 170" version="1.1" xmlns="http://www.w3.org/2000/svg" xmlns:xlink="http://www.w3.org/1999/xlink">
    <!-- Generator: Sketch 53.2 (72643) - https://sketchapp.com -->
    <title>Group 3</title>
    <desc>Created with Sketch.</desc>
    <g id="Page-1" stroke="none" stroke-width="1" fill="none" fill-rule="evenodd">
        <g id="Group-3" transform="translate(3.000000, 3.000000)">
            <g id="noun_Night_922993" transform="translate(44.000000, 36.000000)" fill="#FFFFFF" fill-rule="nonzero">
                <g id="Group">
                    <path d="M74.296,59.144 C73.964,58.931 73.59,58.82 73.213,58.82 C72.781,58.82 72.354,58.963 71.995,59.238 C67.311,62.904 61.68,64.843 55.722,64.843 C41.138,64.843 29.278,52.977 29.278,38.399 C29.278,32.435 31.212,26.809 34.878,22.122 C35.398,21.455 35.438,20.529 34.974,19.82 C34.601,19.252 33.977,18.925 33.319,18.925 C33.157,18.925 32.992,18.945 32.83,18.984 C25.468,20.853 18.806,25.185 14.075,31.185 C9.198,37.366 6.62,44.813 6.62,52.709 C6.62,71.892 22.225,87.503 41.408,87.503 C49.304,87.503 56.749,84.92 62.937,80.041 C68.931,75.314 73.268,68.648 75.132,61.288 C75.342,60.468 75.007,59.609 74.296,59.144" id="Path"></path>
                    <path d="M18.774,7.005 C18.62,6.528 18.173,6.204 17.672,6.204 L12.514,6.204 L10.923,1.3 C10.765,0.819 10.321,0.496 9.821,0.496 C9.317,0.496 8.871,0.819 8.717,1.3 L7.124,6.204 L1.964,6.204 C1.464,6.204 1.02,6.528 0.862,7.005 C0.708,7.482 0.878,8.006 1.285,8.301 L5.456,11.333 L3.861,16.237 C3.707,16.714 3.877,17.238 4.285,17.534 C4.486,17.68 4.724,17.755 4.963,17.755 C5.206,17.755 5.444,17.68 5.645,17.534 L9.82,14.502 L13.988,17.534 C14.196,17.68 14.432,17.755 14.67,17.755 C14.909,17.755 15.147,17.68 15.352,17.534 C15.756,17.239 15.926,16.714 15.772,16.237 L14.177,11.333 L18.352,8.301 C18.758,8.006 18.928,7.481 18.774,7.005" id="Path"></path>
                    <path d="M74.855,27.492 C74.589,26.676 73.83,26.124 72.975,26.124 L64.166,26.124 L61.442,17.747 C61.18,16.931 60.417,16.379 59.561,16.379 C58.704,16.379 57.941,16.931 57.679,17.747 L54.955,26.124 L46.146,26.124 C45.291,26.124 44.532,26.676 44.266,27.492 C44,28.308 44.29,29.199 44.984,29.703 L52.113,34.883 L49.389,43.26 C49.127,44.076 49.412,44.967 50.106,45.471 C50.453,45.727 50.861,45.85 51.269,45.85 C51.677,45.85 52.089,45.727 52.436,45.471 L59.561,40.295 L66.685,45.471 C67.032,45.727 67.44,45.85 67.852,45.85 C68.26,45.85 68.668,45.727 69.015,45.471 C69.709,44.967 69.996,44.076 69.734,43.26 L67.008,34.883 L74.137,29.703 C74.832,29.199 75.124,28.308 74.855,27.492" id="Path"></path>
                </g>
            </g>
            <circle id="Oval" stroke="#FFFFFF" stroke-width="5" cx="82" cy="82" r="82"></circle>
        </g>
    </g>
</svg>