<?xml version="1.0" encoding="UTF-8"?>
<svg width="376px" height="69px" viewBox="0 0 376 69" version="1.1" xmlns="http://www.w3.org/2000/svg" xmlns:xlink="http://www.w3.org/1999/xlink">
    <!-- Generator: Sketch 53.2 (72643) - https://sketchapp.com -->
    <title>TinyCamHDLogo</title>
    <desc>Created with Sketch.</desc>
    <g id="Page-1" stroke="none" stroke-width="1" fill="none" fill-rule="evenodd">
        <g id="TinyCamHDLogo" transform="translate(0.000000, -19.000000)" fill="#FFFFFF">
            <path d="M97.1455078,26.8574219 L83.234375,26.8574219 L83.234375,73 L79.1328125,73 L79.1328125,26.8574219 L65.2558594,26.8574219 L65.2558594,23.234375 L97.1455078,23.234375 L97.1455078,26.8574219 Z M107.84375,73 L103.708008,73 L103.708008,36.0175781 L107.84375,36.0175781 L107.84375,73 Z M107.84375,25.4902344 L103.708008,25.4902344 L103.708008,19.6796875 L107.84375,19.6796875 L107.84375,25.4902344 Z M121.208008,36.0175781 L121.549805,42.1357422 C122.529627,39.9710178 123.834139,38.2962299 125.463379,37.1113281 C127.092619,35.9264264 129.000966,35.3339844 131.188477,35.3339844 C134.49253,35.3339844 137.027498,36.5587443 138.793457,39.0083008 C140.559416,41.4578573 141.442383,45.2688543 141.442383,50.4414062 L141.442383,73 L137.306641,73 L137.306641,50.4755859 C137.306641,46.2600701 136.691412,43.2978601 135.460938,41.5888672 C134.230463,39.8798743 132.441744,39.0253906 130.094727,39.0253906 C127.998362,39.0253906 126.243822,39.7146741 124.831055,41.0932617 C123.418287,42.4718493 122.358727,44.3118375 121.652344,46.6132812 L121.652344,73 L117.550781,73 L117.550781,36.0175781 L121.208008,36.0175781 Z M159.591797,62.8144531 L160.548828,66.5400391 L160.753906,66.5400391 L169.503906,36.0175781 L174.083984,36.0175781 L160.890625,78.9130859 C160.093095,81.3740357 159.039232,83.4931552 157.729004,85.2705078 C156.418776,87.0478604 154.544609,87.9365234 152.106445,87.9365234 C151.696287,87.9365234 151.183597,87.8795579 150.568359,87.765625 C149.953122,87.6516921 149.497397,87.5491541 149.201172,87.4580078 L149.645508,83.9375 C149.873374,83.9830731 150.249346,84.0343422 150.773438,84.0913086 C151.297529,84.148275 151.684895,84.1767578 151.935547,84.1767578 C153.325528,84.1767578 154.453446,83.5273502 155.319336,82.2285156 C156.185226,80.929681 156.880206,79.3232518 157.404297,77.4091797 L158.942383,72.5214844 L147.25293,36.0175781 L151.798828,36.0175781 L159.591797,62.8144531 Z M210.246094,56.9697266 L210.348633,57.1748047 C210.394206,62.643582 209.095391,66.7678897 206.452148,69.5478516 C203.808906,72.3278134 199.912461,73.7177734 194.762695,73.7177734 C189.61293,73.7177734 185.500015,72.139827 182.423828,68.9838867 C179.347641,65.8279465 177.80957,61.3561487 177.80957,55.5683594 L177.80957,40.7001953 C177.80957,34.9351925 179.296372,30.4633948 182.27002,27.284668 C185.243667,24.1059411 189.225561,22.5166016 194.21582,22.5166016 C199.502305,22.5166016 203.495592,23.9293479 206.195801,26.7548828 C208.89601,29.5804178 210.291666,33.7616911 210.382812,39.2988281 L210.280273,39.5039062 L200.915039,39.5039062 C201.051758,36.2454264 200.607427,33.8984447 199.582031,32.4628906 C198.556635,31.0273366 196.767916,30.3095703 194.21582,30.3095703 C192.028309,30.3095703 190.353521,31.164054 189.191406,32.8730469 C188.029291,34.5820398 187.448242,37.168277 187.448242,40.6318359 L187.448242,55.5683594 C187.448242,59.0774915 188.069167,61.6865149 189.311035,63.3955078 C190.552903,65.1045007 192.370105,65.9589844 194.762695,65.9589844 C197.109712,65.9589844 198.744624,65.281094 199.66748,63.925293 C200.590337,62.5694919 200.994792,60.250993 200.880859,56.9697266 L210.246094,56.9697266 Z M233.625,73 C233.351561,72.3847625 233.106609,71.7125688 232.890137,70.9833984 C232.673664,70.2542281 232.508464,69.5136756 232.394531,68.7617188 C231.483068,70.2656325 230.37224,71.4676062 229.062012,72.3676758 C227.751784,73.2677454 226.230803,73.7177734 224.499023,73.7177734 C221.445623,73.7177734 219.0018,72.7151793 217.16748,70.7099609 C215.333161,68.7047426 214.416016,66.0273605 214.416016,62.6777344 C214.416016,59.0546694 215.58381,56.2405699 217.919434,54.2353516 C220.255057,52.2301332 223.724261,51.2275391 228.327148,51.2275391 L231.984375,51.2275391 L231.984375,48.2197266 C231.984375,46.4195874 231.659671,45.0353239 231.010254,44.0668945 C230.360837,43.0984652 229.386725,42.6142578 228.087891,42.6142578 C226.994135,42.6142578 226.173831,43.0016237 225.626953,43.7763672 C225.080075,44.5511106 224.806641,45.6790291 224.806641,47.1601562 L215.407227,47.1259766 L215.304688,46.9208984 C215.190755,43.7079917 216.381335,40.9736441 218.876465,38.7177734 C221.371595,36.4619028 224.658508,35.3339844 228.737305,35.3339844 C232.588235,35.3339844 235.715646,36.4562062 238.119629,38.7006836 C240.523612,40.945161 241.725586,44.1409298 241.725586,48.2880859 L241.725586,63.2587891 C241.725586,65.0817148 241.85091,66.779289 242.101562,68.3515625 C242.352215,69.923836 242.739581,71.4732997 243.263672,73 L233.625,73 Z M227.301758,66.4033203 C228.28158,66.4033203 229.187333,66.1412787 230.019043,65.6171875 C230.850753,65.0930963 231.505857,64.4209025 231.984375,63.6005859 L231.984375,56.7988281 L228.327148,56.7988281 C226.846021,56.7988281 225.775068,57.3115183 225.114258,58.3369141 C224.453447,59.3623098 224.123047,60.661125 224.123047,62.2333984 C224.123047,63.4638733 224.407875,64.4664675 224.977539,65.2412109 C225.547203,66.0159544 226.321935,66.4033203 227.301758,66.4033203 Z M256.969727,36.0175781 L257.345703,40.734375 C258.325526,39.0025955 259.555982,37.669601 261.037109,36.7353516 C262.518237,35.8011021 264.215811,35.3339844 266.129883,35.3339844 C267.998382,35.3339844 269.627597,35.8295849 271.017578,36.8208008 C272.407559,37.8120167 273.467119,39.3216044 274.196289,41.3496094 C275.153325,39.4355373 276.383782,37.9544323 277.887695,36.90625 C279.391609,35.8580677 281.146149,35.3339844 283.151367,35.3339844 C286.204768,35.3339844 288.614412,36.5929236 290.380371,39.1108398 C292.14633,41.6287561 293.029297,45.4739325 293.029297,50.6464844 L293.029297,73 L283.288086,73 L283.288086,50.6464844 C283.288086,47.7981628 282.980472,45.8328505 282.365234,44.7504883 C281.749997,43.6681261 280.792975,43.1269531 279.494141,43.1269531 C278.559891,43.1269531 277.728194,43.4003879 276.999023,43.9472656 C276.269853,44.4941434 275.666018,45.246089 275.1875,46.203125 C275.210287,46.6360699 275.233073,47.0633117 275.255859,47.4848633 C275.278646,47.9064149 275.290039,48.3450498 275.290039,48.8007812 L275.290039,73 L265.617188,73 L265.617188,50.6464844 C265.617188,47.8209494 265.303877,45.8613336 264.677246,44.7675781 C264.050615,43.6738227 263.076504,43.1269531 261.754883,43.1269531 C260.866206,43.1269531 260.074385,43.3491189 259.379395,43.793457 C258.684404,44.2377952 258.086266,44.85872 257.584961,45.65625 L257.584961,73 L247.912109,73 L247.912109,36.0175781 L256.969727,36.0175781 Z M334.899414,73 L325.192383,73 L325.192383,52.3896484 L309.743164,52.3896484 L309.743164,73 L300.001953,73 L300.001953,23.234375 L309.743164,23.234375 L309.743164,44.6308594 L325.192383,44.6308594 L325.192383,23.234375 L334.899414,23.234375 L334.899414,73 Z M342.418945,73 L342.418945,23.234375 L357.458008,23.234375 C362.5622,23.234375 366.777653,25.165508 370.104492,29.027832 C373.431332,32.890156 375.094727,37.8632508 375.094727,43.9472656 L375.094727,52.3212891 C375.094727,58.4053039 373.431332,63.3727021 370.104492,67.2236328 C366.777653,71.0745635 362.5622,73 357.458008,73 L342.418945,73 Z M352.160156,31.0273438 L352.160156,65.2412109 L356.911133,65.2412109 C359.622735,65.2412109 361.713372,64.0620235 363.183105,61.7036133 C364.652839,59.3452031 365.387695,56.2177929 365.387695,52.3212891 L365.387695,43.8789062 C365.387695,40.005189 364.652839,36.8948685 363.183105,34.5478516 C361.713372,32.2008346 359.622735,31.0273438 356.911133,31.0273438 L352.160156,31.0273438 Z" id="TinyCamHD" fill-rule="nonzero"></path>
            <path d="M8,22 L43,22 C47.418278,22 51,25.581722 51,30 L51,65 C51,69.418278 47.418278,73 43,73 L8,73 C3.581722,73 5.41083001e-16,69.418278 0,65 L0,30 C-5.41083001e-16,25.581722 3.581722,22 8,22 Z M25.5,59 C31.8512746,59 37,53.8512746 37,47.5 C37,41.1487254 31.8512746,36 25.5,36 C19.1487254,36 14,41.1487254 14,47.5 C14,53.8512746 19.1487254,59 25.5,59 Z" id="Combined-Shape"></path>
        </g>
    </g>
</svg>